<?xml version="1.0" encoding="UTF-8"?>
<svg width="80px" height="80px" viewBox="0 0 80 80" version="1.1" xmlns="http://www.w3.org/2000/svg" xmlns:xlink="http://www.w3.org/1999/xlink">
    <!-- Generator: Sketch 55.1 (78136) - https://sketchapp.com -->
    <title>cup</title>
    <desc>Created with Sketch.</desc>
    <g id="cup" stroke="none" stroke-width="1" fill="none" fill-rule="evenodd">
        <path d="M62.9550089,37.2940301 C63.5576808,37.0965655 64.2413623,37 65,37 C68.7041567,37 71,38.8653727 71,44 C71,49.6844449 65.8593397,57 62,57 C60.3991062,57 59.1041296,56.6076571 58.1713211,55.8177181 C57.8389274,56.4064625 57.4906139,56.9778811 57.1267716,57.5316381 C66.8573709,59.4259592 73,62.8122122 73,67 C73,73.3885187 58.2432599,78 40,78 C21.7567401,78 7,73.3885187 7,67 C7,62.7888483 13.2136033,59.3872014 23.0366536,57.4999504 C19.1721193,51.6990404 17,44.0416214 17,35 C17,31.4830094 17.714314,28.6257533 19.1679497,26.4452998 C19.3534155,26.1671011 19.6656468,26 20,26 L60,26 C60.2652165,26 60.5195704,26.1053568 60.7071068,26.2928932 C62.2757794,27.8615659 63,30.7584482 63,35 C63,35.7756788 62.9849148,36.5404312 62.9550089,37.2940301 Z M62.8139324,39.608537 C62.3631047,45.0545457 61.1030703,49.8669403 59.1435641,53.9515576 C59.6810928,54.647113 60.5967632,55 62,55 C64.5730927,55 69,48.7001705 69,44 C69,40.0721273 67.6804587,39 65,39 C63.9923976,39 63.2781258,39.2131667 62.8139324,39.608537 Z M57.1593553,53.4581246 C59.6356167,48.4729332 61,42.2598236 61,35 C61,31.5457427 60.4854946,29.20815 59.5498214,28 L20.5546684,28 C19.5247286,29.7712195 19,32.1001126 19,35 C19,44.7869889 21.6341282,52.7989002 26.2012874,58.4312461 C30.1380695,63.2861937 35.294866,66 40,66 C44.8151786,66 49.9500739,63.3882608 53.8464501,58.6264822 C55.0615656,57.1414842 56.1381257,55.479473 57.0634018,53.6495831 C57.0883947,53.5827362 57.1205178,53.5185009 57.1593553,53.4581246 Z M24.331992,59.2942211 C14.9050073,60.9771497 9,64.0744263 9,67 C9,71.6571763 22.8970359,76 40,76 C57.1029641,76 71,71.6571763 71,67 C71,64.09462 65.1728984,61.0166063 55.8457167,59.3261736 C55.6973352,59.517637 55.5468579,59.7065953 55.3943049,59.8930309 C51.1302706,65.104126 45.4367428,68 40,68 C34.6604663,68 28.9476657,64.9935919 24.6478288,59.6909153 C24.5415528,59.5598528 24.4362715,59.427619 24.331992,59.2942211 Z M26.7932099,43.8598994 C26.8958358,44.4025654 26.5391129,44.9256779 25.9964469,45.0283038 C25.453781,45.1309298 24.9306685,44.7742069 24.8280425,44.2315409 C24.2808235,41.3379538 24,38.2558749 24,35 C24,33.9075817 24.0688475,32.8796895 24.2071832,31.9161816 C24.2856727,31.3695027 24.7924718,30.9899602 25.3391508,31.0684496 C25.8858297,31.1469391 26.2653722,31.6537382 26.1868827,32.2004172 C26.0625078,33.0666877 26,33.9999292 26,35 C26,38.132864 26.2694927,41.0905856 26.7932099,43.8598994 Z M40.5527864,3.89442719 C40.0588079,3.64743794 39.8585836,3.0467649 40.1055728,2.5527864 C40.3525621,2.05880791 40.9532351,1.85858356 41.4472136,2.10557281 C43.1546095,2.95927076 44,4.65005176 44,7 C44,8.33634615 43.5926769,9.3515681 42.6678589,10.8351304 C42.5883055,10.9627472 42.5055082,11.0937721 42.3454889,11.346493 C41.3511225,12.9209064 41,13.7694525 41,15 C41,17.0432235 41.5467295,18.4100471 42.6,19.2 C43.0418278,19.5313708 43.1313708,20.1581722 42.8,20.6 C42.4686292,21.0418278 41.8418278,21.1313708 41.4,20.8 C39.7866039,19.5899529 39,17.6234432 39,15 C39,13.2930475 39.4738775,12.1478436 40.6545111,10.278507 C40.8159203,10.0235748 40.8948553,9.89866198 40.9706251,9.77711452 C41.7141418,8.58438986 42,7.87190988 42,7 C42,5.34994824 41.5120572,4.37406257 40.5527864,3.89442719 Z M30.6192502,11.9246781 C30.1085646,11.7143958 29.8650396,11.1299358 30.0753219,10.6192502 C30.2856042,10.1085646 30.8700642,9.86503959 31.3807498,10.0753219 C32.4761208,10.526357 33,11.5741155 33,13 C33,13.8462813 32.6936311,14.4836098 32.0449667,15.3536391 C31.9815896,15.4386443 31.9182707,15.5220271 31.7962479,15.6821764 C31.1955681,16.472777 31,16.8595992 31,17.3529412 C31,18.1568814 31.39949,18.6856181 32.3690329,19.0705837 C32.8823354,19.274395 33.1332276,19.8557305 32.9294163,20.3690329 C32.725605,20.8823354 32.1442695,21.1332276 31.6309671,20.9294163 C29.9338434,20.2555584 29,19.0195892 29,17.3529412 C29,16.2911361 29.3544319,15.5900906 30.2037521,14.4722354 C30.3271838,14.3102092 30.3843333,14.2349508 30.4415608,14.1581937 C30.8527426,13.606691 31,13.3003566 31,13 C31,12.3082375 30.8572126,12.0226626 30.6192502,11.9246781 Z M50.6192502,11.9246781 C50.1085646,11.7143958 49.8650396,11.1299358 50.0753219,10.6192502 C50.2856042,10.1085646 50.8700642,9.86503959 51.3807498,10.0753219 C52.4761208,10.526357 53,11.5741155 53,13 C53,13.8462813 52.6936311,14.4836098 52.0449667,15.3536391 C51.9815896,15.4386443 51.9182707,15.5220271 51.7962479,15.6821764 C51.1955681,16.472777 51,16.8595992 51,17.3529412 C51,18.1568814 51.39949,18.6856181 52.3690329,19.0705837 C52.8823354,19.274395 53.1332276,19.8557305 52.9294163,20.3690329 C52.725605,20.8823354 52.1442695,21.1332276 51.6309671,20.9294163 C49.9338434,20.2555584 49,19.0195892 49,17.3529412 C49,16.2911361 49.3544319,15.5900906 50.2037521,14.4722354 C50.3271838,14.3102092 50.3843333,14.2349508 50.4415608,14.1581937 C50.8527426,13.606691 51,13.3003566 51,13 C51,12.3082375 50.8572126,12.0226626 50.6192502,11.9246781 Z" id="Combined-Shape" fill="#2F2F2F" fill-rule="nonzero"></path>
    </g>
</svg>