<?xml version="1.0" encoding="UTF-8"?>
<svg width="80px" height="80px" viewBox="0 0 80 80" version="1.1" xmlns="http://www.w3.org/2000/svg" xmlns:xlink="http://www.w3.org/1999/xlink">
    <!-- Generator: Sketch 55.1 (78136) - https://sketchapp.com -->
    <title>Delivery</title>
    <desc>Created with Sketch.</desc>
    <g id="Delivery" stroke="none" stroke-width="1" fill="none" fill-rule="evenodd">
        <path d="M28.5351288,8 L21,8 C17.1340068,8 14,11.1340068 14,15 L14,69 C14,72.8659932 17.1340068,76 21,76 L59,76 C62.8659932,76 66,72.8659932 66,69 L66,15 C66,11.1340068 62.8659932,8 59,8 L51.4648712,8 C51.8052114,8.58834673 52,9.27142571 52,10 L52,12 L57,12 C59.7614237,12 62,14.2385763 62,17 L62,67 C62,69.7614237 59.7614237,72 57,72 L23,72 C20.2385763,72 18,69.7614237 18,67 L18,17 C18,14.2385763 20.2385763,12 23,12 L28,12 L28,10 C28,9.27142571 28.1947886,8.58834673 28.5351288,8 Z M47.4645556,6 L59,6 C63.9705627,6 68,10.0294373 68,15 L68,69 C68,73.9705627 63.9705627,78 59,78 L21,78 C16.0294373,78 12,73.9705627 12,69 L12,15 C12,10.0294373 16.0294373,6 21,6 L32.5354444,6 L33.0708889,6 C33.5561185,2.60770586 36.4735281,0 40,0 C43.5264719,0 46.4438815,2.60770586 46.9291111,6 L47.4645556,6 Z M28.5351288,14 L23,14 C21.3431458,14 20,15.3431458 20,17 L20,67 C20,68.6568542 21.3431458,70 23,70 L57,70 C58.6568542,70 60,68.6568542 60,67 L60,17 C60,15.3431458 58.6568542,14 57,14 L51.4648712,14 C50.7732524,15.1956027 49.4805647,16 48,16 L32,16 C30.5194353,16 29.2267476,15.1956027 28.5351288,14 Z M26,26 C25.4477153,26 25,25.5522847 25,25 C25,24.4477153 25.4477153,24 26,24 L44,24 C44.5522847,24 45,24.4477153 45,25 C45,25.5522847 44.5522847,26 44,26 L26,26 Z M26,30 C25.4477153,30 25,29.5522847 25,29 C25,28.4477153 25.4477153,28 26,28 L38,28 C38.5522847,28 39,28.4477153 39,29 C39,29.5522847 38.5522847,30 38,30 L26,30 Z M26,36 C25.4477153,36 25,35.5522847 25,35 C25,34.4477153 25.4477153,34 26,34 L44,34 C44.5522847,34 45,34.4477153 45,35 C45,35.5522847 44.5522847,36 44,36 L26,36 Z M26,40 C25.4477153,40 25,39.5522847 25,39 C25,38.4477153 25.4477153,38 26,38 L38,38 C38.5522847,38 39,38.4477153 39,39 C39,39.5522847 38.5522847,40 38,40 L26,40 Z M26,46 C25.4477153,46 25,45.5522847 25,45 C25,44.4477153 25.4477153,44 26,44 L44,44 C44.5522847,44 45,44.4477153 45,45 C45,45.5522847 44.5522847,46 44,46 L26,46 Z M26,50 C25.4477153,50 25,49.5522847 25,49 C25,48.4477153 25.4477153,48 26,48 L38,48 C38.5522847,48 39,48.4477153 39,49 C39,49.5522847 38.5522847,50 38,50 L26,50 Z M26,56 C25.4477153,56 25,55.5522847 25,55 C25,54.4477153 25.4477153,54 26,54 L44,54 C44.5522847,54 45,54.4477153 45,55 C45,55.5522847 44.5522847,56 44,56 L26,56 Z M26,60 C25.4477153,60 25,59.5522847 25,59 C25,58.4477153 25.4477153,58 26,58 L38,58 C38.5522847,58 39,58.4477153 39,59 C39,59.5522847 38.5522847,60 38,60 L26,60 Z M47.7071068,28.2928932 L49,29.5857864 L54.2928932,24.2928932 C54.6834175,23.9023689 55.3165825,23.9023689 55.7071068,24.2928932 C56.0976311,24.6834175 56.0976311,25.3165825 55.7071068,25.7071068 L49.7071068,31.7071068 C49.3165825,32.0976311 48.6834175,32.0976311 48.2928932,31.7071068 L46.2928932,29.7071068 C45.9023689,29.3165825 45.9023689,28.6834175 46.2928932,28.2928932 C46.6834175,27.9023689 47.3165825,27.9023689 47.7071068,28.2928932 Z M47.7071068,38.2928932 L49,39.5857864 L54.2928932,34.2928932 C54.6834175,33.9023689 55.3165825,33.9023689 55.7071068,34.2928932 C56.0976311,34.6834175 56.0976311,35.3165825 55.7071068,35.7071068 L49.7071068,41.7071068 C49.3165825,42.0976311 48.6834175,42.0976311 48.2928932,41.7071068 L46.2928932,39.7071068 C45.9023689,39.3165825 45.9023689,38.6834175 46.2928932,38.2928932 C46.6834175,37.9023689 47.3165825,37.9023689 47.7071068,38.2928932 Z M47.7071068,48.2928932 L49,49.5857864 L54.2928932,44.2928932 C54.6834175,43.9023689 55.3165825,43.9023689 55.7071068,44.2928932 C56.0976311,44.6834175 56.0976311,45.3165825 55.7071068,45.7071068 L49.7071068,51.7071068 C49.3165825,52.0976311 48.6834175,52.0976311 48.2928932,51.7071068 L46.2928932,49.7071068 C45.9023689,49.3165825 45.9023689,48.6834175 46.2928932,48.2928932 C46.6834175,47.9023689 47.3165825,47.9023689 47.7071068,48.2928932 Z M47.7071068,58.2928932 L49,59.5857864 L54.2928932,54.2928932 C54.6834175,53.9023689 55.3165825,53.9023689 55.7071068,54.2928932 C56.0976311,54.6834175 56.0976311,55.3165825 55.7071068,55.7071068 L49.7071068,61.7071068 C49.3165825,62.0976311 48.6834175,62.0976311 48.2928932,61.7071068 L46.2928932,59.7071068 C45.9023689,59.3165825 45.9023689,58.6834175 46.2928932,58.2928932 C46.6834175,57.9023689 47.3165825,57.9023689 47.7071068,58.2928932 Z M32,8 C30.8954305,8 30,8.8954305 30,10 L30,12 C30,13.1045695 30.8954305,14 32,14 L48,14 C49.1045695,14 50,13.1045695 50,12 L50,10 C50,8.8954305 49.1045695,8 48,8 L45,8 L45,7 C45,4.23857625 42.7614237,2 40,2 C37.2385763,2 35,4.23857625 35,7 L35,8 L32,8 Z M40,10 C38.8954305,10 38,9.1045695 38,8 C38,6.8954305 38.8954305,6 40,6 C41.1045695,6 42,6.8954305 42,8 C42,9.1045695 41.1045695,10 40,10 Z" fill="#2F2F2F" fill-rule="nonzero"></path>
    </g>
</svg>