<?xml version="1.0" encoding="UTF-8"?>
<svg width="80px" height="80px" viewBox="0 0 80 80" version="1.1" xmlns="http://www.w3.org/2000/svg" xmlns:xlink="http://www.w3.org/1999/xlink">
    <!-- Generator: Sketch 55.1 (78136) - https://sketchapp.com -->
    <title>happy</title>
    <desc>Created with Sketch.</desc>
    <g id="happy" stroke="none" stroke-width="1" fill="none" fill-rule="evenodd">
        <path d="M40,78 C19.0131795,78 2,60.9868205 2,40 C2,19.0131795 19.0131795,2 40,2 C60.9868205,2 78,19.0131795 78,40 C78,60.9868205 60.9868205,78 40,78 Z M40,76 C59.882251,76 76,59.882251 76,40 C76,20.117749 59.882251,4 40,4 C20.117749,4 4,20.117749 4,40 C4,59.882251 20.117749,76 40,76 Z M56.4587504,49.4992738 C56.7352939,49.0212129 57.3470215,48.8578508 57.8250823,49.1343943 C58.3031432,49.4109378 58.4665053,50.0226654 58.1899618,50.5007262 C54.461834,56.9455428 47.5835927,61 40,61 C32.4164073,61 25.538166,56.9455428 21.8100382,50.5007262 C21.5334947,50.0226654 21.6968568,49.4109378 22.1749177,49.1343943 C22.6529785,48.8578508 23.2647061,49.0212129 23.5412496,49.4992738 C26.9154406,55.3322394 33.1376649,59 40,59 C46.8623351,59 53.0845594,55.3322394 56.4587504,49.4992738 Z M27,37 C24.790861,37 23,35.209139 23,33 C23,30.790861 24.790861,29 27,29 C29.209139,29 31,30.790861 31,33 C31,35.209139 29.209139,37 27,37 Z M27,35 C28.1045695,35 29,34.1045695 29,33 C29,31.8954305 28.1045695,31 27,31 C25.8954305,31 25,31.8954305 25,33 C25,34.1045695 25.8954305,35 27,35 Z M53,37 C50.790861,37 49,35.209139 49,33 C49,30.790861 50.790861,29 53,29 C55.209139,29 57,30.790861 57,33 C57,35.209139 55.209139,37 53,37 Z M53,35 C54.1045695,35 55,34.1045695 55,33 C55,31.8954305 54.1045695,31 53,31 C51.8954305,31 51,31.8954305 51,33 C51,34.1045695 51.8954305,35 53,35 Z" fill="#2F2F2F" fill-rule="nonzero"></path>
    </g>
</svg>