<?xml version="1.0" encoding="UTF-8"?>
<svg width="80px" height="80px" viewBox="0 0 80 80" version="1.1" xmlns="http://www.w3.org/2000/svg" xmlns:xlink="http://www.w3.org/1999/xlink">
    <!-- Generator: Sketch 55.1 (78136) - https://sketchapp.com -->
    <title>Ia</title>
    <desc>Created with Sketch.</desc>
    <g id="Ia" stroke="none" stroke-width="1" fill="none" fill-rule="evenodd">
        <path d="M5,8 L75,8 C76.6568542,8 78,9.34314575 78,11 L78,69 C78,70.6568542 76.6568542,72 75,72 L5,72 C3.34314575,72 2,70.6568542 2,69 L2,11 C2,9.34314575 3.34314575,8 5,8 Z M5,10 C4.44771525,10 4,10.4477153 4,11 L4,69 C4,69.5522847 4.44771525,70 5,70 L75,70 C75.5522847,70 76,69.5522847 76,69 L76,11 C76,10.4477153 75.5522847,10 75,10 L5,10 Z M15,18 L21,18 C22.6568542,18 24,19.3431458 24,21 L24,27 C24,28.6568542 22.6568542,30 21,30 L15,30 C13.3431458,30 12,28.6568542 12,27 L12,21 C12,19.3431458 13.3431458,18 15,18 Z M15,20 C14.4477153,20 14,20.4477153 14,21 L14,27 C14,27.5522847 14.4477153,28 15,28 L21,28 C21.5522847,28 22,27.5522847 22,27 L22,21 C22,20.4477153 21.5522847,20 21,20 L15,20 Z M31,23 C30.4477153,23 30,22.5522847 30,22 C30,21.4477153 30.4477153,21 31,21 L49,21 C49.5522847,21 50,21.4477153 50,22 C50,22.5522847 49.5522847,23 49,23 L31,23 Z M31,27 C30.4477153,27 30,26.5522847 30,26 C30,25.4477153 30.4477153,25 31,25 L65,25 C65.5522847,25 66,25.4477153 66,26 C66,26.5522847 65.5522847,27 65,27 L31,27 Z M15,34 L21,34 C22.6568542,34 24,35.3431458 24,37 L24,43 C24,44.6568542 22.6568542,46 21,46 L15,46 C13.3431458,46 12,44.6568542 12,43 L12,37 C12,35.3431458 13.3431458,34 15,34 Z M15,36 C14.4477153,36 14,36.4477153 14,37 L14,43 C14,43.5522847 14.4477153,44 15,44 L21,44 C21.5522847,44 22,43.5522847 22,43 L22,37 C22,36.4477153 21.5522847,36 21,36 L15,36 Z M31,39 C30.4477153,39 30,38.5522847 30,38 C30,37.4477153 30.4477153,37 31,37 L49,37 C49.5522847,37 50,37.4477153 50,38 C50,38.5522847 49.5522847,39 49,39 L31,39 Z M31,43 C30.4477153,43 30,42.5522847 30,42 C30,41.4477153 30.4477153,41 31,41 L65,41 C65.5522847,41 66,41.4477153 66,42 C66,42.5522847 65.5522847,43 65,43 L31,43 Z M15,50 L21,50 C22.6568542,50 24,51.3431458 24,53 L24,59 C24,60.6568542 22.6568542,62 21,62 L15,62 C13.3431458,62 12,60.6568542 12,59 L12,53 C12,51.3431458 13.3431458,50 15,50 Z M15,52 C14.4477153,52 14,52.4477153 14,53 L14,59 C14,59.5522847 14.4477153,60 15,60 L21,60 C21.5522847,60 22,59.5522847 22,59 L22,53 C22,52.4477153 21.5522847,52 21,52 L15,52 Z M31,55 C30.4477153,55 30,54.5522847 30,54 C30,53.4477153 30.4477153,53 31,53 L49,53 C49.5522847,53 50,53.4477153 50,54 C50,54.5522847 49.5522847,55 49,55 L31,55 Z M31,59 C30.4477153,59 30,58.5522847 30,58 C30,57.4477153 30.4477153,57 31,57 L65,57 C65.5522847,57 66,57.4477153 66,58 C66,58.5522847 65.5522847,59 65,59 L31,59 Z" id="IA" fill="#2F2F2F" fill-rule="nonzero"></path>
    </g>
</svg>