<?xml version="1.0" encoding="UTF-8"?>
<svg width="80px" height="80px" viewBox="0 0 80 80" version="1.1" xmlns="http://www.w3.org/2000/svg" xmlns:xlink="http://www.w3.org/1999/xlink">
    <!-- Generator: Sketch 55.1 (78136) - https://sketchapp.com -->
    <title>IS</title>
    <desc>Created with Sketch.</desc>
    <g id="IS" stroke="none" stroke-width="1" fill="none" fill-rule="evenodd">
        <path d="M55.9639216,29.6929327 C57.2070812,31.6144893 58.0951675,33.7474836 58.5779859,36 L66,36 L66,33 C66,32.190977 66.9106849,31.7168238 67.5734623,32.1807681 L77.5734623,39.1807681 C78.1421792,39.5788699 78.1421792,40.4211301 77.5734623,40.8192319 L67.5734623,47.8192319 C66.9106849,48.2831762 66,47.809023 66,47 L66,44 L58.5779859,44 C58.0951675,46.2525164 57.2070812,48.3855107 55.9639216,50.3070673 L58.3847763,52.7279221 C58.7753006,53.1184464 58.7753006,53.7516113 58.3847763,54.1421356 L54.1421356,58.3847763 C53.7516113,58.7753006 53.1184464,58.7753006 52.7279221,58.3847763 L50.3070673,55.9639216 C48.3855107,57.2070812 46.2525164,58.0951675 44,58.5779859 L44,66 L47,66 C47.809023,66 48.2831762,66.9106849 47.8192319,67.5734623 L40.8192319,77.5734623 C40.4211301,78.1421792 39.5788699,78.1421792 39.1807681,77.5734623 L32.1807681,67.5734623 C31.7168238,66.9106849 32.190977,66 33,66 L36,66 L36,58.5779859 C33.7474836,58.0951675 31.6144893,57.2070812 29.6929327,55.9639216 L27.2720779,58.3847763 C26.8815536,58.7753006 26.2483887,58.7753006 25.8578644,58.3847763 L21.6152237,54.1421356 C21.2246994,53.7516113 21.2246994,53.1184464 21.6152237,52.7279221 L24.0360784,50.3070673 C22.7929188,48.3855107 21.9048325,46.2525164 21.4220141,44 L14,44 L14,47 C14,47.809023 13.0893151,48.2831762 12.4265377,47.8192319 L2.42653766,40.8192319 C1.85782078,40.4211301 1.85782078,39.5788699 2.42653766,39.1807681 L12.4265377,32.1807681 C13.0893151,31.7168238 14,32.190977 14,33 L14,36 L21.4220141,36 C21.9048325,33.7474836 22.7929188,31.6144893 24.0360784,29.6929327 L21.6152237,27.2720779 C21.2246994,26.8815536 21.2246994,26.2483887 21.6152237,25.8578644 L25.8578644,21.6152237 C26.2483887,21.2246994 26.8815536,21.2246994 27.2720779,21.6152237 L29.6929327,24.0360784 C31.6144893,22.7929188 33.7474836,21.9048325 36,21.4220141 L36,14 L33,14 C32.190977,14 31.7168238,13.0893151 32.1807681,12.4265377 L39.1807681,2.42653766 C39.5788699,1.85782078 40.4211301,1.85782078 40.8192319,2.42653766 L47.8192319,12.4265377 C48.2831762,13.0893151 47.809023,14 47,14 L44,14 L44,21.4220141 C46.2525164,21.9048325 48.3855107,22.7929188 50.3070673,24.0360784 L52.7279221,21.6152237 C53.1184464,21.2246994 53.7516113,21.2246994 54.1421356,21.6152237 L58.3847763,25.8578644 C58.7753006,26.2483887 58.7753006,26.8815536 58.3847763,27.2720779 L55.9639216,29.6929327 Z M68,34.9206556 L68,37 C68,37.5522847 67.5522847,38 67,38 L57.7511247,38 C57.2626907,38 56.8457218,37.6471579 56.7649075,37.1654559 C56.3385392,34.6240428 55.3408085,32.2331645 53.8576769,30.1504666 C53.5744309,29.7527164 53.6198592,29.2085679 53.965137,28.8632901 L56.263456,26.5649712 L53.4350288,23.736544 L51.1367099,26.034863 C50.7914321,26.3801408 50.2472836,26.4255691 49.8495334,26.1423231 C47.7668355,24.6591915 45.3759572,23.6614608 42.8345441,23.2350925 C42.3528421,23.1542782 42,22.7373093 42,22.2488753 L42,13 C42,12.4477153 42.4477153,12 43,12 L45.0793444,12 L40,4.74379366 L34.9206556,12 L37,12 C37.5522847,12 38,12.4477153 38,13 L38,22.2488753 C38,22.7373093 37.6471579,23.1542782 37.1654559,23.2350925 C34.6240428,23.6614608 32.2331645,24.6591915 30.1504666,26.1423231 C29.7527164,26.4255691 29.2085679,26.3801408 28.8632901,26.034863 L26.5649712,23.736544 L23.736544,26.5649712 L26.034863,28.8632901 C26.3801408,29.2085679 26.4255691,29.7527164 26.1423231,30.1504666 C24.6591915,32.2331645 23.6614608,34.6240428 23.2350925,37.1654559 C23.1542782,37.6471579 22.7373093,38 22.2488753,38 L13,38 C12.4477153,38 12,37.5522847 12,37 L12,34.9206556 L4.74379366,40 L12,45.0793444 L12,43 C12,42.4477153 12.4477153,42 13,42 L22.2488753,42 C22.7373093,42 23.1542782,42.3528421 23.2350925,42.8345441 C23.6614608,45.3759572 24.6591915,47.7668355 26.1423231,49.8495334 C26.4255691,50.2472836 26.3801408,50.7914321 26.034863,51.1367099 L23.736544,53.4350288 L26.5649712,56.263456 L28.8632901,53.965137 C29.2085679,53.6198592 29.7527164,53.5744309 30.1504666,53.8576769 C32.2331645,55.3408085 34.6240428,56.3385392 37.1654559,56.7649075 C37.6471579,56.8457218 38,57.2626907 38,57.7511247 L38,67 C38,67.5522847 37.5522847,68 37,68 L34.9206556,68 L40,75.2562063 L45.0793444,68 L43,68 C42.4477153,68 42,67.5522847 42,67 L42,57.7511247 C42,57.2626907 42.3528421,56.8457218 42.8345441,56.7649075 C45.3759572,56.3385392 47.7668355,55.3408085 49.8495334,53.8576769 C50.2472836,53.5744309 50.7914321,53.6198592 51.1367099,53.965137 L53.4350288,56.263456 L56.263456,53.4350288 L53.965137,51.1367099 C53.6198592,50.7914321 53.5744309,50.2472836 53.8576769,49.8495334 C55.3408085,47.7668355 56.3385392,45.3759572 56.7649075,42.8345441 C56.8457218,42.3528421 57.2626907,42 57.7511247,42 L67,42 C67.5522847,42 68,42.4477153 68,43 L68,45.0793444 L75.2562063,40 L68,34.9206556 Z M40,49 C35.0294373,49 31,44.9705627 31,40 C31,35.0294373 35.0294373,31 40,31 C44.9705627,31 49,35.0294373 49,40 C49,44.9705627 44.9705627,49 40,49 Z M40,47 C43.8659932,47 47,43.8659932 47,40 C47,36.1340068 43.8659932,33 40,33 C36.1340068,33 33,36.1340068 33,40 C33,43.8659932 36.1340068,47 40,47 Z" id="Combined-Shape" fill="#2F2F2F" fill-rule="nonzero"></path>
    </g>
</svg>