<?xml version="1.0" encoding="UTF-8"?>
<svg width="80px" height="80px" viewBox="0 0 80 80" version="1.1" xmlns="http://www.w3.org/2000/svg" xmlns:xlink="http://www.w3.org/1999/xlink">
    <!-- Generator: Sketch 55.1 (78136) - https://sketchapp.com -->
    <title>project</title>
    <desc>Created with Sketch.</desc>
    <g id="project" stroke="none" stroke-width="1" fill="none" fill-rule="evenodd">
        <path d="M28.5351288,8 L21,8 C17.1340068,8 14,11.1340068 14,15 L14,69 C14,72.8659932 17.1340068,76 21,76 L59,76 C62.8659932,76 66,72.8659932 66,69 L66,15 C66,11.1340068 62.8659932,8 59,8 L51.4648712,8 C51.8052114,8.58834673 52,9.27142571 52,10 L52,12 L57,12 C59.7614237,12 62,14.2385763 62,17 L62,67 C62,69.7614237 59.7614237,72 57,72 L23,72 C20.2385763,72 18,69.7614237 18,67 L18,17 C18,14.2385763 20.2385763,12 23,12 L28,12 L28,10 C28,9.27142571 28.1947886,8.58834673 28.5351288,8 Z M47.4645556,6 L59,6 C63.9705627,6 68,10.0294373 68,15 L68,69 C68,73.9705627 63.9705627,78 59,78 L21,78 C16.0294373,78 12,73.9705627 12,69 L12,15 C12,10.0294373 16.0294373,6 21,6 L32.5354444,6 L33.0708889,6 C33.5561185,2.60770586 36.4735281,0 40,0 C43.5264719,0 46.4438815,2.60770586 46.9291111,6 L47.4645556,6 Z M28.5351288,14 L23,14 C21.3431458,14 20,15.3431458 20,17 L20,67 C20,68.6568542 21.3431458,70 23,70 L57,70 C58.6568542,70 60,68.6568542 60,67 L60,17 C60,15.3431458 58.6568542,14 57,14 L51.4648712,14 C50.7732524,15.1956027 49.4805647,16 48,16 L32,16 C30.5194353,16 29.2267476,15.1956027 28.5351288,14 Z M32,8 C30.8954305,8 30,8.8954305 30,10 L30,12 C30,13.1045695 30.8954305,14 32,14 L48,14 C49.1045695,14 50,13.1045695 50,12 L50,10 C50,8.8954305 49.1045695,8 48,8 L45,8 L45,7 C45,4.23857625 42.7614237,2 40,2 C37.2385763,2 35,4.23857625 35,7 L35,8 L32,8 Z M40,10 C38.8954305,10 38,9.1045695 38,8 C38,6.8954305 38.8954305,6 40,6 C41.1045695,6 42,6.8954305 42,8 C42,9.1045695 41.1045695,10 40,10 Z M50.7610492,42.8247373 L54.2928932,39.2928932 C54.6834175,38.9023689 55.3165825,38.9023689 55.7071068,39.2928932 C56.0976311,39.6834175 56.0976311,40.3165825 55.7071068,40.7071068 L51,45.4142136 L51,60 C51,61.6568542 49.6568542,63 48,63 L32,63 C30.3431458,63 29,61.6568542 29,60 L29,44 C29,42.3431458 30.3431458,41 32,41 L48,41 C49.239743,41 50.3038469,41.752 50.7610492,42.8247373 Z M49,44.5857864 L49,44 C49,43.4477153 48.5522847,43 48,43 L32,43 C31.4477153,43 31,43.4477153 31,44 L31,60 C31,60.5522847 31.4477153,61 32,61 L48,61 C48.5522847,61 49,60.5522847 49,60 L49,47.4142136 L40.7071068,55.7071068 C40.3165825,56.0976311 39.6834175,56.0976311 39.2928932,55.7071068 L34.7928932,51.2071068 C34.4023689,50.8165825 34.4023689,50.1834175 34.7928932,49.7928932 C35.1834175,49.4023689 35.8165825,49.4023689 36.2071068,49.7928932 L40,53.5857864 L49,44.5857864 Z M27,24 L53,24 C53.5522847,24 54,24.4477153 54,25 C54,25.5522847 53.5522847,26 53,26 L27,26 C26.4477153,26 26,25.5522847 26,25 C26,24.4477153 26.4477153,24 27,24 Z M27,28 L53,28 C53.5522847,28 54,28.4477153 54,29 C54,29.5522847 53.5522847,30 53,30 L27,30 C26.4477153,30 26,29.5522847 26,29 C26,28.4477153 26.4477153,28 27,28 Z M33,32 L47,32 C47.5522847,32 48,32.4477153 48,33 C48,33.5522847 47.5522847,34 47,34 L33,34 C32.4477153,34 32,33.5522847 32,33 C32,32.4477153 32.4477153,32 33,32 Z" id="Combined-Shape" fill="#2F2F2F" fill-rule="nonzero"></path>
    </g>
</svg>