<?xml version="1.0" encoding="UTF-8"?>
<svg width="80px" height="80px" viewBox="0 0 80 80" version="1.1" xmlns="http://www.w3.org/2000/svg" xmlns:xlink="http://www.w3.org/1999/xlink">
    <!-- Generator: Sketch 55.1 (78136) - https://sketchapp.com -->
    <title>UI</title>
    <desc>Created with Sketch.</desc>
    <g id="UI" stroke="none" stroke-width="1" fill="none" fill-rule="evenodd">
        <path d="M78.3934114,54.341507 C79.1880144,54.6815317 79.2061653,55.8014026 78.422999,56.1669997 L40.422999,73.9061302 C40.1548871,74.0312899 39.8451129,74.0312899 39.577001,73.9061302 L1.57700102,56.1669997 C0.79383474,55.8014026 0.811985589,54.6815317 1.60658858,54.341507 L12.9626598,49.4820441 L1.57700102,44.1669997 C0.79383474,43.8014026 0.811985589,42.6815317 1.60658858,42.341507 L12.9626598,37.4820441 L1.57700102,32.1669997 C0.79383474,31.8014026 0.811985589,30.6815317 1.60658858,30.341507 L12.9626598,25.4820441 L1.57700102,20.1669997 C0.79383474,19.8014026 0.811985589,18.6815317 1.60658858,18.341507 L39.6065886,2.08063748 C39.857844,1.97312084 40.142156,1.97312084 40.3934114,2.08063748 L78.3934114,18.341507 C79.1880144,18.6815317 79.2061653,19.8014026 78.422999,20.1669997 L67.0373402,25.4820441 L78.3934114,30.341507 C79.1880144,30.6815317 79.2061653,31.8014026 78.422999,32.1669997 L67.0373402,37.4820441 L78.3934114,42.341507 C79.1880144,42.6815317 79.2061653,43.8014026 78.422999,44.1669997 L67.0373402,49.4820441 L78.3934114,54.341507 Z M64.1948239,50.4411017 C63.4002209,50.101077 63.38207,48.981206 64.1652363,48.615609 L75.5508951,43.3005646 L64.1948239,38.4411017 C63.4002209,38.101077 63.38207,36.981206 64.1652363,36.615609 L75.5508951,31.3005646 L64.1948239,26.4411017 C63.4002209,26.101077 63.38207,24.981206 64.1652363,24.615609 L75.5508951,19.3005646 L40,4.0877102 L4.44910494,19.3005646 L15.8347637,24.615609 C16.61793,24.981206 16.5997791,26.101077 15.8051761,26.4411017 L4.44910494,31.3005646 L15.8347637,36.615609 C16.61793,36.981206 16.5997791,38.101077 15.8051761,38.4411017 L4.44910494,43.3005646 L15.8347637,48.615609 C16.61793,48.981206 16.5997791,50.101077 15.8051761,50.4411017 L4.44910494,55.3005646 L40,71.8964058 L75.5508951,55.3005646 L64.1948239,50.4411017 Z M39.598485,8.08414756 C39.8544048,7.97195081 40.1455952,7.97195081 40.401515,8.08414756 L64.401515,18.6058867 C65.1852233,18.949469 65.2034249,20.0546706 64.4314555,20.4238734 L40.4314555,31.9021342 C40.1586176,32.0326219 39.8413824,32.0326219 39.5685445,31.9021342 L15.5685445,20.4238734 C14.7965751,20.0546706 14.8147767,18.949469 15.598485,18.6058867 L39.598485,8.08414756 Z M40,10.091879 L18.4003943,19.5612713 L40,29.8915175 L61.5996057,19.5612713 L40,10.091879 Z M57.2521643,27.8427639 C57.5128123,27.7210884 57.8132336,27.7175459 58.0766783,27.8330416 L64.401515,30.6058867 C65.1852233,30.949469 65.2034249,32.0546706 64.4314555,32.4238734 L40.4314555,43.9021342 C40.1586176,44.0326219 39.8413824,44.0326219 39.5685445,43.9021342 L15.5685445,32.4238734 C14.7965751,32.0546706 14.8147767,30.949469 15.598485,30.6058867 L21.9233217,27.8330416 C22.1867664,27.7175459 22.4871877,27.7210884 22.7478357,27.8427639 L39.9999959,35.8964058 L57.2521643,27.8427639 Z M40.422999,37.9061302 C40.1548871,38.0312899 39.8451129,38.0312899 39.577001,37.9061302 L22.3118949,29.8464468 L18.4003943,31.5612713 L40,41.8915175 L61.5996057,31.5612713 L57.6881051,29.8464468 L40.422999,37.9061302 Z M57.2521643,39.8427639 C57.5128123,39.7210884 57.8132336,39.7175459 58.0766783,39.8330416 L64.401515,42.6058867 C65.1852233,42.949469 65.2034249,44.0546706 64.4314555,44.4238734 L40.4314555,55.9021342 C40.1586176,56.0326219 39.8413824,56.0326219 39.5685445,55.9021342 L15.5685445,44.4238734 C14.7965751,44.0546706 14.8147767,42.949469 15.598485,42.6058867 L21.9233217,39.8330416 C22.1867664,39.7175459 22.4871877,39.7210884 22.7478357,39.8427639 L39.9999959,47.8964058 L57.2521643,39.8427639 Z M40.422999,49.9061302 C40.1548871,50.0312899 39.8451129,50.0312899 39.577001,49.9061302 L22.3118949,41.8464468 L18.4003943,43.5612713 L40,53.8915175 L61.5996057,43.5612713 L57.6881051,41.8464468 L40.422999,49.9061302 Z M57.2521643,51.8427639 C57.5128123,51.7210884 57.8132336,51.7175459 58.0766783,51.8330416 L64.401515,54.6058867 C65.1852233,54.949469 65.2034249,56.0546706 64.4314555,56.4238734 L40.4314555,67.9021342 C40.1586176,68.0326219 39.8413824,68.0326219 39.5685445,67.9021342 L15.5685445,56.4238734 C14.7965751,56.0546706 14.8147767,54.949469 15.598485,54.6058867 L21.9233217,51.8330416 C22.1867664,51.7175459 22.4871877,51.7210884 22.7478357,51.8427639 L39.9999959,59.8964058 L57.2521643,51.8427639 Z M40.422999,61.9061302 C40.1548871,62.0312899 39.8451129,62.0312899 39.577001,61.9061302 L22.3118949,53.8464468 L18.4003943,55.5612713 L40,65.8915175 L61.5996057,55.5612713 L57.6881051,53.8464468 L40.422999,61.9061302 Z" fill="#2F2F2F" fill-rule="nonzero"></path>
    </g>
</svg>