<?xml version="1.0" encoding="UTF-8"?>
<svg width="80px" height="80px" viewBox="0 0 80 80" version="1.1" xmlns="http://www.w3.org/2000/svg" xmlns:xlink="http://www.w3.org/1999/xlink">
    <!-- Generator: Sketch 55.1 (78136) - https://sketchapp.com -->
    <title>User_Research</title>
    <desc>Created with Sketch.</desc>
    <g id="User_Research" stroke="none" stroke-width="1" fill="none" fill-rule="evenodd">
        <path d="M54,68 L60,68 C60.5522847,68 61,68.4477153 61,69 C61,69.5522847 60.5522847,70 60,70 L54,70 L54,72 L60,72 C60.5522847,72 61,72.4477153 61,73 C61,73.5522847 60.5522847,74 60,74 L54,74 L54,76 L68,76 L68,65 L65,65 L57,65 L54,65 L54,68 Z M52,76 L52,65 C52,63.8954305 52.8954305,63 54,63 L56,63 L56,58.2526786 C48.9463893,56.0878195 44,49.5373393 44,42 C44,32.6111593 51.6111593,25 61,25 C70.3888407,25 78,32.6111593 78,42 C78,49.5373393 73.0536107,56.0878195 66,58.2526786 L66,63 L68,63 C69.1045695,63 70,63.8954305 70,65 L70,76 L76,76 L76,58 C76,57.4477153 76.4477153,57 77,57 C77.5522847,57 78,57.4477153 78,58 L78,77 C78,77.5522847 77.5522847,78 77,78 L39,78 C38.4477153,78 38,77.5522847 38,77 C38,76.4477153 38.4477153,76 39,76 L52,76 Z M76,17 L64,17 C63.4477153,17 63,16.5522847 63,16 L63,4 L15,4 L15,28 C15,28.5522847 14.5522847,29 14,29 C13.4477153,29 13,28.5522847 13,28 L13,3 C13,2.44771525 13.4477153,2 14,2 L64,2 C64.2652165,2 64.5195704,2.10535684 64.7071068,2.29289322 L77.7071068,15.2928932 C77.8946432,15.4804296 78,15.7347835 78,16 L78,25 C78,25.5522847 77.5522847,26 77,26 C76.4477153,26 76,25.5522847 76,25 L76,17 Z M74.5857864,15 L65,5.41421356 L65,15 L74.5857864,15 Z M64,63 L64,57.4959301 C64,57.0396466 64.3088598,56.6412256 64.7507415,56.5274931 C71.3230362,54.8359013 76,48.8839896 76,42 C76,33.7157288 69.2842712,27 61,27 C52.7157288,27 46,33.7157288 46,42 C46,48.8839896 50.6769638,54.8359013 57.2492585,56.5274931 C57.6911402,56.6412256 58,57.0396466 58,57.4959301 L58,63 L64,63 Z M61,54 C54.372583,54 49,48.627417 49,42 C49,35.372583 54.372583,30 61,30 C67.627417,30 73,35.372583 73,42 C73,48.627417 67.627417,54 61,54 Z M61,52 C66.5228475,52 71,47.5228475 71,42 C71,36.4771525 66.5228475,32 61,32 C55.4771525,32 51,36.4771525 51,42 C51,47.5228475 55.4771525,52 61,52 Z M17,33 C20.8659932,33 24,36.1340068 24,40 L24,43 C24,46.8659932 20.8659932,50 17,50 C13.1340068,50 10,46.8659932 10,43 L10,40 C10,36.1340068 13.1340068,33 17,33 Z M17,35 C14.2385763,35 12,37.2385763 12,40 L12,43 C12,45.7614237 14.2385763,48 17,48 C19.7614237,48 22,45.7614237 22,43 L22,40 C22,37.2385763 19.7614237,35 17,35 Z M4,77 C4,77.5522847 3.55228475,78 3,78 C2.44771525,78 2,77.5522847 2,77 L2,62.2307692 C2,56.5779828 6.62884929,52 12.3333333,52 L21.6666667,52 C27.3711507,52 32,56.5779828 32,62.2307692 L32,77 C32,77.5522847 31.5522847,78 31,78 C30.4477153,78 30,77.5522847 30,77 L30,62.2307692 C30,57.6875295 26.271498,54 21.6666667,54 L12.3333333,54 C7.72850205,54 4,57.6875295 4,62.2307692 L4,77 Z M9,65 C9,64.4477153 9.44771525,64 10,64 C10.5522847,64 11,64.4477153 11,65 L11,77 C11,77.5522847 10.5522847,78 10,78 C9.44771525,78 9,77.5522847 9,77 L9,65 Z M23,65 C23,64.4477153 23.4477153,64 24,64 C24.5522847,64 25,64.4477153 25,65 L25,77 C25,77.5522847 24.5522847,78 24,78 C23.4477153,78 23,77.5522847 23,77 L23,65 Z M20,12 C19.4477153,12 19,11.5522847 19,11 C19,10.4477153 19.4477153,10 20,10 C20.5522847,10 21,10.4477153 21,11 C21,11.5522847 20.5522847,12 20,12 Z M24,12 C23.4477153,12 23,11.5522847 23,11 C23,10.4477153 23.4477153,10 24,10 C24.5522847,10 25,10.4477153 25,11 C25,11.5522847 24.5522847,12 24,12 Z M28,12 C27.4477153,12 27,11.5522847 27,11 C27,10.4477153 27.4477153,10 28,10 C28.5522847,10 29,10.4477153 29,11 C29,11.5522847 28.5522847,12 28,12 Z M20,14 L38,14 C38.5522847,14 39,14.4477153 39,15 C39,15.5522847 38.5522847,16 38,16 L20,16 C19.4477153,16 19,15.5522847 19,15 C19,14.4477153 19.4477153,14 20,14 Z M20,24 C19.4477153,24 19,23.5522847 19,23 C19,22.4477153 19.4477153,22 20,22 C20.5522847,22 21,22.4477153 21,23 C21,23.5522847 20.5522847,24 20,24 Z M20,28 C19.4477153,28 19,27.5522847 19,27 C19,26.4477153 19.4477153,26 20,26 C20.5522847,26 21,26.4477153 21,27 C21,27.5522847 20.5522847,28 20,28 Z M24,24 C23.4477153,24 23,23.5522847 23,23 C23,22.4477153 23.4477153,22 24,22 C24.5522847,22 25,22.4477153 25,23 C25,23.5522847 24.5522847,24 24,24 Z M28,24 C27.4477153,24 27,23.5522847 27,23 C27,22.4477153 27.4477153,22 28,22 C28.5522847,22 29,22.4477153 29,23 C29,23.5522847 28.5522847,24 28,24 Z M32,24 C31.4477153,24 31,23.5522847 31,23 C31,22.4477153 31.4477153,22 32,22 C32.5522847,22 33,22.4477153 33,23 C33,23.5522847 32.5522847,24 32,24 Z M61,38 C60.4477153,38 60,37.5522847 60,37 C60,36.4477153 60.4477153,36 61,36 C61.5522847,36 62,36.4477153 62,37 C62,37.5522847 61.5522847,38 61,38 Z M61,43 C60.4477153,43 60,42.5522847 60,42 C60,41.4477153 60.4477153,41 61,41 C61.5522847,41 62,41.4477153 62,42 C62,42.5522847 61.5522847,43 61,43 Z M61,48 C60.4477153,48 60,47.5522847 60,47 C60,46.4477153 60.4477153,46 61,46 C61.5522847,46 62,46.4477153 62,47 C62,47.5522847 61.5522847,48 61,48 Z M66,43 C65.4477153,43 65,42.5522847 65,42 C65,41.4477153 65.4477153,41 66,41 C66.5522847,41 67,41.4477153 67,42 C67,42.5522847 66.5522847,43 66,43 Z M56,43 C55.4477153,43 55,42.5522847 55,42 C55,41.4477153 55.4477153,41 56,41 C56.5522847,41 57,41.4477153 57,42 C57,42.5522847 56.5522847,43 56,43 Z M24,26 L38,26 C38.5522847,26 39,26.4477153 39,27 C39,27.5522847 38.5522847,28 38,28 L24,28 C23.4477153,28 23,27.5522847 23,27 C23,26.4477153 23.4477153,26 24,26 Z" id="UR" fill="#2F2F2F" fill-rule="nonzero"></path>
    </g>
</svg>