<?xml version="1.0" encoding="UTF-8"?>
<svg width="80px" height="80px" viewBox="0 0 80 80" version="1.1" xmlns="http://www.w3.org/2000/svg" xmlns:xlink="http://www.w3.org/1999/xlink">
    <!-- Generator: Sketch 55.1 (78136) - https://sketchapp.com -->
    <title>UT</title>
    <desc>Created with Sketch.</desc>
    <g id="UT" stroke="none" stroke-width="1" fill="none" fill-rule="evenodd">
        <path d="M31,60 L34.6736312,60 C35.365155,58.544308 36.544308,57.365155 38,56.6736312 L38,51.3780525 C34.7443788,52.2159914 32.0234509,54.3858224 30.452698,57.2720636 C30.7974744,57.7605569 31,58.3566273 31,59 L31,60 Z M31,62 L31,65 L34.2898787,65 C34.1012775,64.3662906 34,63.6949726 34,63 C34,62.6604787 34.024172,62.326603 34.0708889,62 L31,62 Z M31,67 L31,69 C31,69.1977154 30.9885241,69.3927505 30.966202,69.5844756 C33.1111827,72.8465039 36.8041034,75 41,75 C45.196044,75 48.8890767,72.8463526 51.034024,69.5841318 C51.0117282,69.3925175 51.000266,69.1975973 51.000266,69 L51.000266,67 L46.7453107,67 C45.4803646,68.8134841 43.3787451,70 41,70 C38.6212549,70 36.5196354,68.8134841 35.2546893,67 L31,67 Z M51.000266,65 L51.000266,62 L47.9291111,62 C47.975828,62.326603 48,62.6604787 48,63 C48,63.6949726 47.8987225,64.3662906 47.7101213,65 L51.000266,65 Z M51.000266,60 L51.000266,59 C51.000266,58.35672 51.2027332,57.7607287 51.547419,57.2722747 C49.9766821,54.3859281 47.2557006,52.2160118 44,51.3780525 L44,56.6736312 C45.455692,57.365155 46.634845,58.544308 47.3263688,60 L51.000266,60 Z M42,51.0410738 C41.6702666,51.0138713 41.3367532,51 41,51 C40.6632468,51 40.3297334,51.0138713 40,51.0410738 L40,56.0708889 C40.326603,56.024172 40.6604787,56 41,56 C41.3395213,56 41.673397,56.024172 42,56.0708889 L42,51.0410738 Z M28.8096794,56.1105356 C31.2142207,51.8650445 35.7725268,49 41,49 C46.2274995,49 50.7858253,51.8650734 53.190357,56.1105999 C53.4479916,56.0385341 53.7196287,56 54.000266,56 L56.000266,56 C58.7616898,56 61.000266,58.2385763 61.000266,61 L61.000266,73 C61.000266,73.5522847 60.5525508,74 60.000266,74 L56.000266,74 C54.2855861,74 52.7724991,73.1368786 51.8717747,71.8214057 C49.3048645,74.981068 45.3882057,77 41,77 C36.6118766,77 32.6952823,74.9811437 30.1283697,71.8215834 C29.2276307,73.1369563 27.7146027,74 26,74 L22,74 C21.4477153,74 21,73.5522847 21,73 L21,61 C21,58.2385763 23.2385763,56 26,56 L28,56 C28.2805539,56 28.552113,56.0385112 28.8096794,56.1105356 Z M54.0807424,58 L54.000266,58 C53.4479813,58 53.000266,58.4477153 53.000266,59 L53.000266,60 L56.000266,60 C56.5525508,60 57.000266,60.4477153 57.000266,61 C57.000266,61.5522847 56.5525508,62 56.000266,62 L53.000266,62 L53.000266,64 L56.000266,64 C56.5525508,64 57.000266,64.4477153 57.000266,65 C57.000266,65.5522847 56.5525508,66 56.000266,66 L53.000266,66 L53.000266,68 L56.000266,68 C56.5525508,68 57.000266,68.4477153 57.000266,69 C57.000266,69.5522847 56.5525508,70 56.000266,70 L53.1709717,70 C53.5828081,71.1651924 54.6940472,72 56.000266,72 L59.000266,72 L59.000266,61 C59.000266,59.3431458 57.6571203,58 56.000266,58 L54.0807424,58 Z M38,4 C38,2.8954305 38.8954305,2 40,2 L42,2 C43.1045695,2 44,2.8954305 44,4 C51.1797017,4 57,9.82029825 57,17 L57,21 C57,21.5522847 56.5522847,22 56,22 L26,22 C25.4477153,22 25,21.5522847 25,21 L25,17 C25,9.82029825 30.8202983,4 38,4 Z M55,20 L55,17 C55,10.9248678 50.0751322,6 44,6 L38,6 C31.9248678,6 27,10.9248678 27,17 L27,20 L55,20 Z M38,16 L44,16 C45.1045695,16 46,16.8954305 46,18 L36,18 C36,16.8954305 36.8954305,16 38,16 Z M41,45 C47.9477153,45 53,39.9477153 53,34 L53,32 C53,31.4477153 53.4477153,31 54,31 C54.3721294,31 54.7994435,30.786343 55.2928932,30.2928932 C56.6220903,28.9636962 57,28.3338466 57,27 L57,26 L55,26 C54.4477153,26 54,25.5522847 54,25 C54,24.4477153 54.4477153,24 55,24 L58,24 C58.5522847,24 59,24.4477153 59,25 L59,27 C59,28.9994867 58.3779097,30.0363038 56.7071068,31.7071068 C56.1646739,32.2495397 55.5946549,32.6306024 55,32.8324786 L55,34 C55,41.0522847 49.0522847,47 41,47 C32.9477153,47 27,41.0522847 27,34 L27,32.8324786 C26.4053451,32.6306024 25.8353261,32.2495397 25.2928932,31.7071068 C23.6220903,30.0363038 23,28.9994867 23,27 L23,25 C23,24.4477153 23.4477153,24 24,24 L27,24 C27.5522847,24 28,24.4477153 28,25 C28,25.5522847 27.5522847,26 27,26 L25,26 L25,27 C25,28.3338466 25.3779097,28.9636962 26.7071068,30.2928932 C27.2005565,30.786343 27.6278706,31 28,31 C28.5522847,31 29,31.4477153 29,32 L29,34 C29,39.9477153 34.0522847,45 41,45 Z M29,68 L29,66 L26,66 C25.4477153,66 25,65.5522847 25,65 C25,64.4477153 25.4477153,64 26,64 L29,64 L29,62 L26,62 C25.4477153,62 25,61.5522847 25,61 C25,60.4477153 25.4477153,60 26,60 L29,60 L29,59 C29,58.4477153 28.5522847,58 28,58 L26,58 C24.3431458,58 23,59.3431458 23,61 L23,72 L26,72 C27.3062188,72 28.4174579,71.1651924 28.8292943,70 L26,70 C25.4477153,70 25,69.5522847 25,69 C25,68.4477153 25.4477153,68 26,68 L29,68 Z M28,44 L28,48.522967 L31.6286093,47.0715233 C32.1413928,46.8664099 32.7233633,47.1158258 32.9284767,47.6286093 C33.1335901,48.1413928 32.8841742,48.7233633 32.3713907,48.9284767 L27.3713907,50.9284767 C26.7145263,51.1912224 26,50.7074646 26,50 L26,44 C26,43.4477153 26.4477153,43 27,43 C27.5522847,43 28,43.4477153 28,44 Z M25.4452998,39.1679497 C25.9048285,38.8615972 26.5256978,38.9857711 26.8320503,39.4452998 C27.1384028,39.9048285 27.0142289,40.5256978 26.5547002,40.8320503 C18.8056344,45.9980942 15,50.7551372 15,55 L15,68 C15,71.548378 17.5848128,76 21,76 C21.5522847,76 22,76.4477153 22,77 C22,77.5522847 21.5522847,78 21,78 C16.1893808,78 13,72.5071775 13,68 L13,55 C13,49.9115295 17.1943656,44.6685725 25.4452998,39.1679497 Z M9,77 C9,77.5522847 8.55228475,78 8,78 C7.44771525,78 7,77.5522847 7,77 L7,35 C7,28.6717035 12.745078,22 18,22 L22,22 C22.5522847,22 23,22.4477153 23,23 C23,23.5522847 22.5522847,24 22,24 L18,24 C13.9215887,24 9,29.7153933 9,35 L9,77 Z M54.000266,44 C54.000266,43.4477153 54.4479813,43 55.000266,43 C55.5525508,43 56.000266,43.4477153 56.000266,44 L56.000266,50 C56.000266,50.7074646 55.2857397,51.1912224 54.6288753,50.9284767 L49.6288753,48.9284767 C49.1160918,48.7233633 48.8666759,48.1413928 49.0717893,47.6286093 C49.2769027,47.1158258 49.8588732,46.8664099 50.3716567,47.0715233 L54.000266,48.522967 L54.000266,44 Z M56.5549662,39.1679497 C64.8059004,44.6685725 69.000266,49.9115295 69.000266,55 L69.000266,68 C69.000266,72.5071775 65.8108852,78 61.000266,78 C60.4479813,78 60.000266,77.5522847 60.000266,77 C60.000266,76.4477153 60.4479813,76 61.000266,76 C64.4154532,76 67.000266,71.548378 67.000266,68 L67.000266,55 C67.000266,50.7551372 63.1946316,45.9980942 55.4455658,40.8320503 C54.9860371,40.5256978 54.8618633,39.9048285 55.1682157,39.4452998 C55.4745682,38.9857711 56.0954375,38.8615972 56.5549662,39.1679497 Z M73.000266,77 L73.000266,35 C73.000266,29.7153933 68.0786773,24 64.000266,24 L60.000266,24 C59.4479813,24 59.000266,23.5522847 59.000266,23 C59.000266,22.4477153 59.4479813,22 60.000266,22 L64.000266,22 C69.255188,22 75.000266,28.6717035 75.000266,35 L75.000266,77 C75.000266,77.5522847 74.5525508,78 74.000266,78 C73.4479813,78 73.000266,77.5522847 73.000266,77 Z M40,33 L42,33 L42,28 C42,27.4477153 42.4477153,27 43,27 C43.5522847,27 44,27.4477153 44,28 L44,34 C44,34.5522847 43.5522847,35 43,35 L40,35 C39.4477153,35 39,34.5522847 39,34 C39,33.4477153 39.4477153,33 40,33 Z M41,68 C43.7614237,68 46,65.7614237 46,63 C46,60.2385763 43.7614237,58 41,58 C38.2385763,58 36,60.2385763 36,63 C36,65.7614237 38.2385763,68 41,68 Z" fill="#2F2F2F" fill-rule="nonzero"></path>
    </g>
</svg>