<?xml version="1.0" encoding="UTF-8"?>
<svg width="80px" height="80px" viewBox="0 0 80 80" version="1.1" xmlns="http://www.w3.org/2000/svg" xmlns:xlink="http://www.w3.org/1999/xlink">
    <!-- Generator: Sketch 55.1 (78136) - https://sketchapp.com -->
    <title>works</title>
    <desc>Created with Sketch.</desc>
    <g id="works" stroke="none" stroke-width="1" fill="none" fill-rule="evenodd">
        <path d="M25.7039647,64.2582549 L32,68.105832 L38.2960353,64.2582549 L37.2671127,61 L26.7328873,61 L25.7039647,64.2582549 Z M25.0835228,66.2229875 L22.6928174,73.7935548 L30.0822706,69.2777778 L25.0835228,66.2229875 Z M32,70.4497235 L21.7756425,76.697942 L20.9535827,79.3011314 C20.7872724,79.8277805 20.2255178,80.1198929 19.6988686,79.9535827 C19.1722195,79.7872724 18.8801071,79.2255178 19.0464173,78.6988686 L24.6355337,61 L24,61 C21.2385763,61 19,58.7614237 19,56 C19,55.4477153 19.4477153,55 20,55 L25,55 L25,47 C25,44.7208478 23.8796187,42.3907522 21.5801961,40 L12,40 L12,79 C12,79.5522847 11.5522847,80 11,80 L5,80 C4.44771525,80 4,79.5522847 4,79 L4,40 L1,40 C0.44771525,40 0,39.5522847 0,39 L0,35 C0,34.4477153 0.44771525,34 1,34 L21,34 L21,26 C21,23.2385763 23.2385763,21 26,21 L38,21 C40.7614237,21 43,23.2385763 43,26 L43,34 L60.1000181,34 C60.5632884,31.7177597 62.5810421,30 65,30 L67.3015636,30 L72.36544,16.1894283 L67.0917387,9.69871899 C66.8691121,10.1040182 66.5860794,10.4849884 66.2426407,10.8284271 L62.7071068,14.363961 L64.1213203,15.7781746 C64.5118446,16.1686989 64.5118446,16.8018639 64.1213203,17.1923882 C63.7307961,17.5829124 63.0976311,17.5829124 62.7071068,17.1923882 L52.8076118,7.29289322 C52.4170876,6.90236893 52.4170876,6.26920395 52.8076118,5.87867966 C53.1981361,5.48815536 53.8313011,5.48815536 54.2218254,5.87867966 L55.636039,7.29289322 L59.1715729,3.75735931 C61.1241943,1.80473785 64.2900192,1.80473785 66.2426407,3.75735931 C67.2189233,4.73364189 67.7070786,6.01320784 67.7071068,7.29278253 C67.7311449,7.31687504 67.7541874,7.34242081 67.776114,7.36940737 L74.276114,15.3694074 C74.4983787,15.642964 74.5602156,16.0133293 74.4388763,16.3442546 L69.4317697,30 L71,30 C73.4189579,30 75.4367116,31.7177597 75.8999819,34 L79,34 C79.5522847,34 80,34.4477153 80,35 L80,39 C80,39.5522847 79.5522847,40 79,40 L76,40 L76,79 C76,79.5522847 75.5522847,80 75,80 L57,80 C56.4477153,80 56,79.5522847 56,79 L56,40 L42.7126971,40 C40.4132746,42.3907522 39.2928932,44.7208478 39.2928932,47 L39.2928932,55 L44,55 C44.5522847,55 45,55.4477153 45,56 C45,58.7614237 42.7614237,61 40,61 L39.3644663,61 L44.9535827,78.6988686 C45.1198929,79.2255178 44.8277805,79.7872724 44.3011314,79.9535827 C43.7744822,80.1198929 43.2127276,79.8277805 43.0464173,79.3011314 L42.2243575,76.697942 L32,70.4497235 Z M33.9177294,69.2777778 L41.3071826,73.7935548 L38.9164772,66.2229875 L33.9177294,69.2777778 Z M37.9772106,59 C37.9926224,58.9996417 38.0079994,58.9996436 38.0233307,59 L40,59 C41.3062188,59 42.4174579,58.1651924 42.8292943,57 L21.1707057,57 C21.5825421,58.1651924 22.6937812,59 24,59 L25.9766651,59 C25.9920006,58.9996436 26.0073776,58.9996417 26.0227894,59 L37.9772074,59 Z M40.0525325,40 L24.2403607,40 C26.0688101,42.2942216 27,44.6294277 27,47 L27,55 L37.2928932,55 L37.2928932,47 C37.2928932,44.6294277 38.2240832,42.2942216 40.0525325,40 Z M68.0231396,32 C68.0076884,32.0003617 67.9921958,32.0003635 67.9766733,32 L65,32 C63.6937812,32 62.5825421,32.8348076 62.1707057,34 L73.8292943,34 C73.4174579,32.8348076 72.3062188,32 71,32 L68.0231396,32 Z M74,66 L72,66 C71.4477153,66 71,65.5522847 71,65 C71,64.4477153 71.4477153,64 72,64 L74,64 L74,40 L58,40 L58,64 L68,64 C68.5522847,64 69,64.4477153 69,65 C69,65.5522847 68.5522847,66 68,66 L58,66 L58,78 L74,78 L74,66 Z M41,34 L41,26 C41,24.3431458 39.6568542,23 38,23 L26,23 C24.3431458,23 23,24.3431458 23,26 L23,34 L41,34 Z M42,36 L22,36 L2,36 L2,38 L5,38 L11,38 L57,38 L75,38 L78,38 L78,36 L75,36 L61,36 L42,36 Z M10,40 L6,40 L6,78 L10,78 L10,40 Z M61.2928932,12.9497475 L64.8284271,9.41421356 C66,8.24264069 66,6.34314575 64.8284271,5.17157288 C63.6568542,4 61.7573593,4 60.5857864,5.17157288 L57.0502525,8.70710678 L61.2928932,12.9497475 Z" id="Combined-Shape" fill="#2F2F2F" fill-rule="nonzero"></path>
    </g>
</svg>